<svg xmlns="http://www.w3.org/2000/svg" width="48" height="48" viewBox="0 0 48 48" fill="none">
  <path d="M23.9996 38.84C20.9196 38.84 17.8396 37.6599 15.4996 35.3199C10.7996 30.6199 10.7996 23 15.4996 18.3C17.7796 16.02 20.7996 14.78 23.9996 14.78C27.1996 14.78 30.2396 16.04 32.4996 18.3C37.1996 23 37.1996 30.6199 32.4996 35.3199C30.1596 37.6599 27.0796 38.84 23.9996 38.84ZM23.9996 17.8C21.5996 17.8 19.3196 18.7399 17.6196 20.4399C14.0996 23.9599 14.0996 29.68 17.6196 33.2C21.1396 36.72 26.8596 36.7 30.3796 33.2C33.8996 29.68 33.8996 23.9599 30.3796 20.4399C28.6796 18.7399 26.3996 17.8 23.9996 17.8Z" fill="#444444"/>
  <path d="M20.8202 31.4999C20.4402 31.4999 20.0402 31.36 19.7602 31.06C19.1802 30.48 19.1802 29.52 19.7602 28.92L22.9402 25.7399C23.5202 25.1599 24.4802 25.1599 25.0802 25.7399C25.6602 26.3199 25.6602 27.2799 25.0802 27.8799L21.9002 31.06C21.5802 31.36 21.2002 31.4999 20.8202 31.4999Z" fill="#444444"/>
  <path d="M37.5799 15.02C37.0999 15.02 36.6599 14.84 36.3199 14.5C35.6199 13.8 35.6199 12.66 36.3199 11.98C36.6599 11.64 37.0999 11.46 37.5799 11.46C38.0599 11.46 38.4999 11.64 38.8399 11.98C39.1799 12.32 39.3599 12.76 39.3599 13.24C39.3599 13.72 39.1799 14.16 38.8399 14.5C38.5199 14.84 38.0599 15.02 37.5799 15.02ZM37.4399 13.08V13.38C37.4799 13.42 37.5399 13.4399 37.5999 13.4399C37.8399 13.2999 37.8399 13.16 37.7399 13.08H37.4399Z" fill="#444444"/>
  <path d="M37.5798 15.52C36.9598 15.52 36.3998 15.28 35.9598 14.84C35.0798 13.96 35.0798 12.5 35.9598 11.6C36.3998 11.16 36.9598 10.9399 37.5798 10.9399C38.1998 10.9399 38.7598 11.18 39.1998 11.62C39.6398 12.06 39.8598 12.62 39.8598 13.24C39.8598 13.86 39.6198 14.42 39.1798 14.86C38.7798 15.28 38.1998 15.52 37.5798 15.52ZM37.0798 13.74C37.2198 13.88 37.3998 13.9399 37.5798 13.9399C37.7598 13.9399 37.9398 13.86 38.0798 13.74C38.3598 13.46 38.3598 13.02 38.0798 12.74C37.8198 12.48 37.3398 12.48 37.0798 12.74C36.9598 12.86 36.8798 13.04 36.8798 13.24C36.8798 13.42 36.9398 13.6 37.0798 13.74Z" fill="#444444"/>
  <path d="M10.4196 42.1802C9.95962 42.1802 9.49961 42.0002 9.15961 41.6602C8.81961 41.3202 8.63965 40.8601 8.63965 40.4001C8.63965 39.9201 8.81961 39.4801 9.15961 39.1401C9.49961 38.8001 9.93962 38.6201 10.4196 38.6201C10.8996 38.6201 11.3396 38.8001 11.6796 39.1401C12.3796 39.8401 12.3796 40.9802 11.6796 41.6602C11.3396 42.0002 10.8796 42.1802 10.4196 42.1802ZM10.3796 40.2001C10.3396 40.2001 10.2996 40.2201 10.2596 40.2601C10.1796 40.3401 10.1796 40.4802 10.2596 40.5602C10.2996 40.6002 10.3597 40.6201 10.3997 40.6201L10.5996 40.4202C10.5396 40.2402 10.4596 40.2001 10.3796 40.2001Z" fill="#444444"/>
  <path d="M10.4201 42.6802C9.8401 42.6802 9.24011 42.4601 8.80011 42.0201C8.36011 41.5801 8.12012 41.0001 8.12012 40.4001C8.12012 39.7801 8.36011 39.2202 8.80011 38.7802C9.22011 38.3602 9.8001 38.1201 10.4201 38.1201C11.0401 38.1201 11.6001 38.3602 12.0401 38.8002C12.9401 39.7002 12.9401 41.1402 12.0401 42.0402C11.6001 42.4602 11.0001 42.6802 10.4201 42.6802ZM10.4201 39.6802C10.2401 39.6802 10.0601 39.7401 9.9201 39.8801C9.6401 40.1601 9.6401 40.6001 9.9201 40.8801C10.0601 41.0201 10.2401 41.0801 10.4201 41.0801C10.6001 41.0801 10.8001 41.0001 10.9201 40.8601C11.0401 40.7401 11.1201 40.5601 11.1201 40.3601C11.1201 40.1801 11.0401 39.9801 10.9201 39.8601C10.7801 39.7601 10.6001 39.6802 10.4201 39.6802Z" fill="#444444"/>
  <path d="M43.2 28.6C42.74 28.6 42.28 28.42 41.94 28.08C41.24 27.38 41.24 26.24 41.94 25.54C42.28 25.2 42.74 25.12 43.2 25.02C43.68 25.02 44.1201 25.2 44.4601 25.54C45.1601 26.24 45.1601 27.38 44.4601 28.08C44.1201 28.42 43.66 28.6 43.2 28.6ZM43.06 26.96C43.1 27 43.16 27.02 43.22 27.02C43.44 26.88 43.44 26.74 43.36 26.66C43.28 26.58 43.14 26.58 43.06 26.66C42.98 26.74 42.98 26.88 43.06 26.96Z" fill="#444444"/>
  <path d="M43.2003 29.1C42.6203 29.1 42.0203 28.8799 41.5803 28.4399C40.6803 27.5399 40.6803 26.1 41.5803 25.2C42.0203 24.76 42.5803 24.52 43.2003 24.52C43.8203 24.52 44.3803 24.76 44.8203 25.2C45.7203 26.1 45.7203 27.5399 44.8203 28.4399C44.3803 28.8799 43.8003 29.1 43.2003 29.1ZM42.7003 27.3199C42.8403 27.4599 43.0203 27.52 43.2003 27.52C43.3803 27.52 43.5603 27.4399 43.7003 27.3199C43.9803 27.0399 43.9803 26.5999 43.7003 26.3199C43.4203 26.0399 42.9803 26.0399 42.7003 26.3199C42.4403 26.5799 42.4203 27.0399 42.7003 27.3199Z" fill="#444444"/>
  <path d="M4.79966 28.6001C4.33966 28.6001 3.87965 28.4201 3.53965 28.0801C2.83965 27.3801 2.83965 26.2401 3.53965 25.5401C4.23965 24.8401 5.37969 24.8401 6.07969 25.5401C6.77969 26.2401 6.77969 27.3801 6.07969 28.0801C5.69969 28.4201 5.23966 28.6001 4.79966 28.6001ZM4.63969 26.9601C4.71969 27.0401 4.85967 27.0401 4.93967 26.9601C5.01967 26.8801 5.01967 26.7401 4.93967 26.6601C4.85967 26.5801 4.71969 26.5801 4.63969 26.6601C4.55969 26.7401 4.55969 26.8801 4.63969 26.9601Z" fill="#444444"/>
  <path d="M4.79988 29.1C4.21988 29.1 3.61988 28.88 3.17988 28.44C2.27988 27.54 2.27988 26.1 3.17988 25.2C4.07988 24.3 5.53987 24.32 6.41987 25.2C7.31987 26.1 7.31987 27.54 6.41987 28.44C5.95987 28.88 5.37988 29.1 4.79988 29.1ZM4.27992 27.32C4.55992 27.6 4.99992 27.6 5.27992 27.32C5.55992 27.04 5.55992 26.58 5.27992 26.32C4.99992 26.04 4.55992 26.04 4.27992 26.32C4.01992 26.58 4.01992 27.04 4.27992 27.32Z" fill="#444444"/>
  <path d="M37.5799 42.18C37.1199 42.18 36.6599 42 36.3199 41.66C35.6199 40.96 35.6199 39.82 36.3199 39.12C37.0199 38.42 38.1599 38.42 38.8599 39.12C39.1999 39.46 39.3799 39.9 39.3799 40.38C39.3799 40.86 39.1999 41.3 38.8599 41.64C38.4999 42 38.0399 42.18 37.5799 42.18ZM37.5799 40.18C37.5199 40.18 37.4799 40.2 37.4399 40.24V40.54C37.5199 40.62 37.6599 40.62 37.7399 40.54C37.8199 40.46 37.8199 40.32 37.7399 40.24C37.6799 40.2 37.6399 40.18 37.5799 40.18Z" fill="#444444"/>
  <path d="M37.5802 42.68C37.0002 42.68 36.4002 42.46 35.9602 42.02C35.0602 41.12 35.0602 39.68 35.9602 38.78C36.8602 37.88 38.3001 37.88 39.2001 38.78C39.6401 39.22 39.8801 39.78 39.8801 40.4C39.8801 41.02 39.6401 41.58 39.2001 42.02C38.7601 42.46 38.1602 42.68 37.5802 42.68ZM37.0802 40.9C37.3602 41.18 37.8002 41.18 38.0802 40.9C38.3602 40.62 38.3602 40.18 38.0802 39.9C37.8002 39.62 37.3602 39.62 37.0802 39.9C36.9402 40.04 36.8801 40.22 36.8801 40.4C36.8801 40.58 36.9402 40.76 37.0802 40.9Z" fill="#444444"/>
  <path d="M10.4196 15.02C9.93962 15.02 9.49961 14.84 9.15961 14.5C8.81961 14.16 8.63965 13.72 8.63965 13.24C8.63965 12.76 8.81961 12.32 9.15961 11.98C9.49961 11.64 9.93962 11.46 10.4196 11.46C10.8996 11.46 11.3396 11.64 11.6796 11.98C12.3796 12.68 12.3796 13.82 11.6796 14.52C11.3396 14.84 10.8996 15.02 10.4196 15.02ZM10.2596 13.38C10.2996 13.42 10.3597 13.4399 10.3997 13.4399L10.5996 13.24L10.3997 13.04C10.1797 13.16 10.1796 13.3 10.2596 13.38Z" fill="#444444"/>
  <path d="M10.4196 15.52C9.79962 15.52 9.23962 15.28 8.79962 14.84C8.37962 14.42 8.13965 13.84 8.13965 13.22C8.13965 12.6 8.37964 12.04 8.81964 11.6C9.23964 11.18 9.81964 10.9399 10.4396 10.9399C11.0596 10.9399 11.6196 11.18 12.0596 11.62C12.9396 12.52 12.9396 13.96 12.0596 14.86C11.5996 15.28 11.0396 15.52 10.4196 15.52ZM9.91962 13.74C10.0596 13.88 10.2396 13.96 10.4196 13.96C10.5996 13.96 10.7796 13.88 10.9196 13.76C11.0596 13.64 11.1196 13.44 11.1196 13.26C11.1196 13.08 11.0397 12.88 10.8997 12.76C10.6597 12.5 10.1597 12.5 9.89966 12.76C9.63966 13 9.63962 13.46 9.91962 13.74Z" fill="#444444"/>
  <path d="M23.9998 9.4C23.5198 9.4 23.0797 9.21998 22.7397 8.87998C22.3997 8.53998 22.2197 8.09997 22.2197 7.61997C22.2197 7.13997 22.3997 6.69996 22.7397 6.35996C23.4397 5.65996 24.5798 5.65996 25.2798 6.35996C25.9798 7.05996 25.9798 8.19998 25.2798 8.87998C24.9398 9.19998 24.4798 9.4 23.9998 9.4ZM24.1398 7.45994L23.8398 7.75999C23.9198 7.83999 24.0598 7.83999 24.1398 7.75999V7.45994ZM23.8597 7.45994C23.7797 7.53994 23.7797 7.67999 23.8597 7.75999L24.1597 7.45994H23.8597Z" fill="#444444"/>
  <path d="M23.9998 9.89998C23.3798 9.89998 22.8198 9.65992 22.3798 9.21992C21.9598 8.79992 21.7197 8.21993 21.7197 7.59993C21.7197 6.97993 21.9598 6.41993 22.3998 5.97993C23.2998 5.07993 24.7398 5.07993 25.6398 5.97993C26.5198 6.87993 26.5198 8.31992 25.6398 9.21992C25.1998 9.65992 24.6198 9.89998 23.9998 9.89998ZM24.4998 7.09993L23.4998 8.09993C23.7798 8.37993 24.2198 8.37993 24.4998 8.09993C24.6398 7.95993 24.6998 7.77993 24.6998 7.59993C24.6998 7.41993 24.6398 7.23993 24.4998 7.09993ZM23.9998 6.89998C23.8198 6.89998 23.6198 6.97995 23.4998 7.11995C23.2198 7.39995 23.2198 7.83995 23.4998 8.11995L24.4998 7.11995C24.3798 6.97995 24.1998 6.89998 23.9998 6.89998Z" fill="#444444"/>
</svg>