<svg xmlns="http://www.w3.org/2000/svg" width="48" height="48" viewBox="0 0 48 48" fill="none">
  <path d="M34.4799 45.5H13.5199C7.91986 45.5 4.35986 42.16 4.03986 36.58L2.99986 20.08C2.83986 17.58 3.69986 15.18 5.41986 13.36C7.11986 11.54 9.51986 10.5 11.9999 10.5C12.6399 10.5 13.2599 10.12 13.5599 9.52L14.9999 6.66C16.1799 4.32 19.1399 2.5 21.7199 2.5H26.2999C28.8799 2.5 31.8199 4.32 32.9999 6.64L34.4399 9.56C34.7399 10.12 35.3399 10.5 35.9999 10.5C38.4799 10.5 40.8799 11.54 42.5799 13.36C44.2999 15.2 45.1599 17.58 44.9999 20.08L43.9599 36.6C43.5999 42.26 40.1399 45.5 34.4799 45.5ZM21.7199 5.5C20.2399 5.5 18.3599 6.66 17.6799 8L16.2399 10.88C15.3999 12.5 13.7799 13.5 11.9999 13.5C10.3199 13.5 8.75986 14.18 7.59986 15.4C6.45986 16.62 5.87986 18.22 5.99986 19.88L7.03986 36.4C7.27986 40.44 9.45986 42.5 13.5199 42.5H34.4799C38.5199 42.5 40.6999 40.44 40.9599 36.4L41.9999 19.88C42.0999 18.22 41.5399 16.62 40.3999 15.4C39.2399 14.18 37.6799 13.5 35.9999 13.5C34.2199 13.5 32.5999 12.5 31.7599 10.92L30.2999 8C29.6399 6.68 27.7599 5.52 26.2799 5.52H21.7199V5.5Z" fill="#444444"/>
  <path d="M27 17.5H21C20.18 17.5 19.5 16.82 19.5 16C19.5 15.18 20.18 14.5 21 14.5H27C27.82 14.5 28.5 15.18 28.5 16C28.5 16.82 27.82 17.5 27 17.5Z" fill="#444444"/>
  <path d="M24 37.5C19.58 37.5 16 33.92 16 29.5C16 25.08 19.58 21.5 24 21.5C28.42 21.5 32 25.08 32 29.5C32 33.92 28.42 37.5 24 37.5ZM24 24.5C21.24 24.5 19 26.74 19 29.5C19 32.26 21.24 34.5 24 34.5C26.76 34.5 29 32.26 29 29.5C29 26.74 26.76 24.5 24 24.5Z" fill="#444444"/>
</svg>