<svg xmlns="http://www.w3.org/2000/svg" width="49" height="48" viewBox="0 0 49 48" fill="none">
  <path d="M40.5 29.5C37.46 29.5 35 27.04 35 24C35 20.96 37.46 18.5 40.5 18.5C43.54 18.5 46 20.96 46 24C46 27.04 43.54 29.5 40.5 29.5ZM40.5 21.5C39.12 21.5 38 22.62 38 24C38 25.38 39.12 26.5 40.5 26.5C41.88 26.5 43 25.38 43 24C43 22.62 41.88 21.5 40.5 21.5Z" fill="#444444"/>
  <path d="M40.5 13.5C37.46 13.5 35 11.04 35 8C35 4.96 37.46 2.5 40.5 2.5C43.54 2.5 46 4.96 46 8C46 11.04 43.54 13.5 40.5 13.5ZM40.5 5.5C39.12 5.5 38 6.62 38 8C38 9.38 39.12 10.5 40.5 10.5C41.88 10.5 43 9.38 43 8C43 6.62 41.88 5.5 40.5 5.5Z" fill="#444444"/>
  <path d="M40.5 45.5C37.46 45.5 35 43.04 35 40C35 36.96 37.46 34.5 40.5 34.5C43.54 34.5 46 36.96 46 40C46 43.04 43.54 45.5 40.5 45.5ZM40.5 37.5C39.12 37.5 38 38.62 38 40C38 41.38 39.12 42.5 40.5 42.5C41.88 42.5 43 41.38 43 40C43 38.62 41.88 37.5 40.5 37.5Z" fill="#444444"/>
  <path d="M8.5 29.5C5.46 29.5 3 27.04 3 24C3 20.96 5.46 18.5 8.5 18.5C11.54 18.5 14 20.96 14 24C14 27.04 11.54 29.5 8.5 29.5ZM8.5 21.5C7.12 21.5 6 22.62 6 24C6 25.38 7.12 26.5 8.5 26.5C9.88 26.5 11 25.38 11 24C11 22.62 9.88 21.5 8.5 21.5Z" fill="#444444"/>
  <path d="M36.5 25.5H12.5C11.68 25.5 11 24.82 11 24C11 23.18 11.68 22.5 12.5 22.5H36.5C37.32 22.5 38 23.18 38 24C38 24.82 37.32 25.5 36.5 25.5Z" fill="#444444"/>
  <path d="M36.5 41.5H28.5C23.66 41.5 21 38.84 21 34V14C21 9.16 23.66 6.5 28.5 6.5H36.5C37.32 6.5 38 7.18 38 8C38 8.82 37.32 9.5 36.5 9.5H28.5C25.34 9.5 24 10.84 24 14V34C24 37.16 25.34 38.5 28.5 38.5H36.5C37.32 38.5 38 39.18 38 40C38 40.82 37.32 41.5 36.5 41.5Z" fill="#444444"/>
</svg>