<svg xmlns="http://www.w3.org/2000/svg" width="49" height="48" viewBox="0 0 49 48" fill="none">
  <path d="M13.5399 32.52C13.1599 32.52 12.7799 32.38 12.4799 32.08C11.8999 31.5 11.8999 30.54 12.4799 29.96L18.5799 23.86C19.1599 23.28 20.1199 23.28 20.6999 23.86C21.2799 24.44 21.2799 25.4 20.6999 25.98L14.5999 32.08C14.2999 32.36 13.9199 32.52 13.5399 32.52Z" fill="#444444"/>
  <path d="M19.7 32.58C19.32 32.58 18.94 32.44 18.64 32.14L12.54 26.04C11.96 25.46 11.96 24.5 12.54 23.92C13.12 23.34 14.08 23.34 14.66 23.92L20.76 30.02C21.34 30.6 21.34 31.56 20.76 32.14C20.46 32.44 20.08 32.58 19.7 32.58Z" fill="#444444"/>
  <path d="M27.5801 30C26.4801 30 25.5601 29.1 25.5601 28C25.5601 26.9 26.4401 26 27.5401 26H27.5801C28.6801 26 29.5801 26.9 29.5801 28C29.5801 29.1 28.7001 30 27.5801 30Z" fill="#444444"/>
  <path d="M35.4599 30C34.3599 30 33.4399 29.1 33.4399 28C33.4399 26.9 34.3199 26 35.4199 26H35.4599C36.5599 26 37.4599 26.9 37.4599 28C37.4599 29.1 36.5599 30 35.4599 30Z" fill="#444444"/>
  <path d="M31.5 33.94C30.4 33.94 29.5 33.06 29.5 31.96V31.92C29.5 30.82 30.4 29.92 31.5 29.92C32.6 29.92 33.5 30.82 33.5 31.92C33.5 33.02 32.62 33.94 31.5 33.94Z" fill="#444444"/>
  <path d="M31.5 26.06C30.4 26.06 29.5 25.18 29.5 24.08V24.04C29.5 22.94 30.4 22.04 31.5 22.04C32.6 22.04 33.5 22.94 33.5 24.04C33.5 25.14 32.62 26.06 31.5 26.06Z" fill="#444444"/>
  <path d="M30.5 45.5H18.5C7.64 45.5 3 40.86 3 30V26C3 15.14 7.64 10.5 18.5 10.5H30.5C41.36 10.5 46 15.14 46 26V30C46 40.86 41.36 45.5 30.5 45.5ZM18.5 13.5C9.28 13.5 6 16.78 6 26V30C6 39.22 9.28 42.5 18.5 42.5H30.5C39.72 42.5 43 39.22 43 30V26C43 16.78 39.72 13.5 30.5 13.5H18.5Z" fill="#444444"/>
  <path d="M26.48 13.5H24.48C22.56 13.5 20.98 11.92 20.98 10C20.98 8.08 22.54 6.5 24.46 6.5C24.78 6.5 25 6.28 25.02 6L25.04 3.98C25.06 3.16 25.72 2.5 26.54 2.5H26.56C27.38 2.52 28.06 3.2 28.04 4.02L28.02 6.04C28 7.94 26.42 9.5 24.52 9.5C24.2 9.5 24 9.72 24 10C24 10.28 24.22 10.5 24.5 10.5H26.5C27.32 10.5 28 11.18 28 12C28 12.82 27.3 13.5 26.48 13.5Z" fill="#444444"/>
</svg>