<svg xmlns="http://www.w3.org/2000/svg" width="49" height="48" viewBox="0 0 49 48" fill="none">
  <path d="M17.5 25.5C16.68 25.5 16 24.82 16 24V14.4399C16 13.6199 16.68 12.9399 17.5 12.9399C18.32 12.9399 19 13.6199 19 14.4399V24C19 24.82 18.32 25.5 17.5 25.5Z" fill="#444444"/>
  <path d="M17.5 45.5C16.68 45.5 16 44.82 16 44V38C16 37.18 16.68 36.5 17.5 36.5C18.32 36.5 19 37.18 19 38V44C19 44.82 18.32 45.5 17.5 45.5Z" fill="#444444"/>
  <path d="M31.5 45.5C30.68 45.5 30 44.82 30 44V14.4399C30 13.6199 30.68 12.9399 31.5 12.9399C32.32 12.9399 33 13.6199 33 14.4399V44C33 44.82 32.32 45.5 31.5 45.5Z" fill="#444444"/>
  <path d="M17.0998 15.7H12.5998C12.0198 15.7 11.5199 15.38 11.2599 14.86C10.9999 14.34 11.0599 13.74 11.3999 13.28C11.7799 12.78 11.9998 12.14 11.9998 11.48V9.68005C11.9998 9.04005 11.7799 8.4 11.3999 7.88C11.0599 7.42 10.9999 6.82005 11.2599 6.30005C11.5199 5.80005 12.0398 5.45996 12.5998 5.45996H17.0998C19.9198 5.45996 22.1999 7.74006 22.1999 10.5601C22.1999 11.9401 21.6598 13.2201 20.6798 14.1801C19.7598 15.1601 18.4798 15.7 17.0998 15.7ZM14.8798 12.7H17.0998C17.6598 12.7 18.1798 12.48 18.5598 12.1C18.9798 11.7 19.1999 11.18 19.1999 10.6C19.1999 9.43998 18.2598 8.5 17.0998 8.5H14.8798C14.9598 8.9 14.9998 9.29995 14.9998 9.69995V11.5C14.9998 11.9 14.9598 12.3 14.8798 12.7Z" fill="#444444"/>
  <path d="M8.99951 17.5C7.67951 17.5 5.91953 17.0799 4.07953 15.4399C3.45953 14.8799 3.01953 13.88 3.01953 13V8.31995C3.01953 7.53995 3.37954 6.61996 3.89954 6.07996C5.75954 4.13996 7.67953 3.71995 8.95953 3.69995C8.97953 3.69995 8.99953 3.69995 9.01953 3.69995C10.5995 3.69995 12.1595 4.33996 13.2595 5.45996C13.4595 5.65996 13.6595 5.90001 13.8395 6.14001C14.5795 7.12001 14.9995 8.39995 14.9995 9.69995V11.5C14.9995 12.8 14.5795 14.08 13.7995 15.1C12.7995 16.44 11.2595 17.3 9.59949 17.46C9.41949 17.48 9.19951 17.5 8.99951 17.5ZM8.99951 6.69995C8.97951 6.69995 8.97953 6.69995 8.95953 6.69995C7.93953 6.71995 6.93949 7.22003 6.03949 8.16003C6.03949 8.16003 5.99951 8.29999 5.99951 8.35999V13.02C5.99951 13.06 6.05949 13.2 6.09949 13.26C7.11949 14.16 8.2395 14.62 9.2995 14.5C10.1395 14.42 10.8795 13.9999 11.3995 13.3199C11.7795 12.8199 11.9995 12.18 11.9995 11.52V9.71997C11.9995 9.07997 11.7795 8.44004 11.3995 7.92004C11.2995 7.76004 11.1995 7.67996 11.1195 7.57996C10.5595 7.01996 9.79951 6.69995 8.99951 6.69995Z" fill="#444444"/>
  <path d="M36.3998 15.7H31.8998C30.5198 15.7 29.2398 15.1601 28.2798 14.1801C27.3398 13.2601 26.7998 11.98 26.7998 10.6C26.7998 7.77998 29.0798 5.5 31.8998 5.5H36.3998C36.9598 5.5 37.4798 5.81997 37.7398 6.33997C37.9998 6.83997 37.9398 7.46004 37.5998 7.92004C37.2198 8.42004 36.9998 9.05997 36.9998 9.71997V11.52C36.9998 12.18 37.2198 12.7999 37.5998 13.3199C37.9398 13.7799 37.9998 14.38 37.7398 14.9C37.4998 15.38 36.9798 15.7 36.3998 15.7ZM31.8998 8.5C30.7398 8.5 29.7998 9.43998 29.7998 10.6C29.7998 11.16 30.0198 11.6801 30.3998 12.0601C30.7998 12.4801 31.3198 12.7 31.8998 12.7H34.1198C34.0398 12.3 33.9998 11.9 33.9998 11.5V9.69995C33.9998 9.29995 34.0398 8.9 34.1198 8.5H31.8998Z" fill="#444444"/>
  <path d="M40.0005 17.5C39.7805 17.5 39.5805 17.48 39.3805 17.48C37.7205 17.32 36.2005 16.46 35.1805 15.12C34.4005 14.1 33.9805 12.82 33.9805 11.52V9.71997C33.9805 8.41997 34.4005 7.14 35.1805 6.12C35.3205 5.92 35.5205 5.67998 35.7205 5.47998C36.8405 4.35998 38.3805 3.71997 39.9605 3.71997C39.9805 3.71997 40.0005 3.71997 40.0205 3.71997C41.3005 3.73997 43.2205 4.15998 45.0805 6.09998C45.6005 6.63998 45.9605 7.55997 45.9605 8.33997V13.02C45.9605 13.9 45.5205 14.8999 44.9005 15.4399C43.0805 17.0799 41.3205 17.5 40.0005 17.5ZM40.0005 6.69995C39.2005 6.69995 38.4205 7.01996 37.8805 7.57996C37.8005 7.65996 37.7205 7.75999 37.6405 7.85999C37.2205 8.41999 37.0005 9.05995 37.0005 9.69995V11.5C37.0005 12.16 37.2205 12.78 37.6005 13.3C38.1205 13.98 38.8605 14.4 39.7005 14.5C40.7605 14.62 41.8805 14.16 42.9605 13.22C42.9605 13.22 43.0005 13.08 43.0205 13.02V8.35999C43.0205 8.31999 42.9605 8.18001 42.9405 8.14001C42.0805 7.24001 41.0805 6.73999 40.0605 6.73999C40.0205 6.69999 40.0205 6.69995 40.0005 6.69995Z" fill="#444444"/>
  <path d="M17.5 39.5C15.02 39.5 13 37.48 13 35V27C13 24.52 15.02 22.5 17.5 22.5C19.98 22.5 22 24.52 22 27V35C22 37.48 19.98 39.5 17.5 39.5ZM17.5 25.5C16.68 25.5 16 26.18 16 27V35C16 35.82 16.68 36.5 17.5 36.5C18.32 36.5 19 35.82 19 35V27C19 26.18 18.32 25.5 17.5 25.5Z" fill="#444444"/>
</svg>