<svg xmlns="http://www.w3.org/2000/svg" width="49" height="48" viewBox="0 0 49 48" fill="none">
  <path d="M35.62 35.94H13.38C5.42 35.94 3 33.52 3 25.56V12.88C3 4.92 5.42 2.5 13.38 2.5H35.6C43.56 2.5 45.98 4.92 45.98 12.88V25.54C46 33.52 43.58 35.94 35.62 35.94ZM13.38 5.5C7.1 5.5 6 6.6 6 12.88V25.54C6 31.82 7.1 32.92 13.38 32.92H35.6C41.88 32.92 42.98 31.82 42.98 25.54V12.88C42.98 6.6 41.88 5.5 35.6 5.5H13.38V5.5Z" fill="#444444"/>
  <path d="M24.5 45.4999C23.68 45.4999 23 44.8199 23 43.9999V34.4399C23 33.6199 23.68 32.9399 24.5 32.9399C25.32 32.9399 26 33.6199 26 34.4399V43.9999C26 44.8199 25.32 45.4999 24.5 45.4999Z" fill="#444444"/>
  <path d="M44.5 27.5H4.5C3.68 27.5 3 26.82 3 26C3 25.18 3.68 24.5 4.5 24.5H44.5C45.32 24.5 46 25.18 46 26C46 26.82 45.32 27.5 44.5 27.5Z" fill="#444444"/>
  <path d="M33.5 45.5H15.5C14.68 45.5 14 44.82 14 44C14 43.18 14.68 42.5 15.5 42.5H33.5C34.32 42.5 35 43.18 35 44C35 44.82 34.32 45.5 33.5 45.5Z" fill="#444444"/>
</svg>