<svg xmlns="http://www.w3.org/2000/svg" width="49" height="48" viewBox="0 0 49 48" fill="none">
  <path d="M46 18V30C46 38.82 43.32 41.5 34.5 41.5H14.5C5.68 41.5 3 38.82 3 30L3 18C3 9.18 5.68 6.5 14.5 6.5H34.5C43.32 6.5 46 9.18 46 18ZM6 30C6 37.16 7.36 38.5 14.5 38.5H34.5C41.64 38.5 43 37.16 43 30V18C43 10.84 41.64 9.5 34.5 9.5L14.5 9.5C7.36 9.5 6 10.84 6 18L6 30Z" fill="#444444"/>
  <path d="M40.22 24C40.22 26.54 38.16 28.6 35.62 28.6C33.08 28.6 31.02 26.54 31.02 24C31.02 21.46 33.08 19.4 35.62 19.4C38.16 19.4 40.22 21.46 40.22 24ZM34 24C34 24.88 34.72 25.6 35.6 25.6C36.48 25.6 37.2 24.88 37.2 24C37.2 23.12 36.48 22.4 35.6 22.4C34.72 22.4 34 23.12 34 24Z" fill="#444444"/>
</svg>