<svg xmlns="http://www.w3.org/2000/svg" width="49" height="48" viewBox="0 0 49 48" fill="none">
  <path d="M31.5 39.5H17.5C12.02 39.5 9 36.48 9 31V17C9 11.52 12.02 8.5 17.5 8.5H31.5C36.98 8.5 40 11.52 40 17V31C40 36.48 36.98 39.5 31.5 39.5ZM17.5 11.5C13.64 11.5 12 13.14 12 17V31C12 34.86 13.64 36.5 17.5 36.5H31.5C35.36 36.5 37 34.86 37 31V17C37 13.14 35.36 11.5 31.5 11.5H17.5Z" fill="#444444"/>
  <path d="M32.5 5.5H16.5C15.68 5.5 15 4.82 15 4C15 3.18 15.68 2.5 16.5 2.5H32.5C33.32 2.5 34 3.18 34 4C34 4.82 33.32 5.5 32.5 5.5Z" fill="#444444"/>
  <path d="M32.5 45.5H16.5C15.68 45.5 15 44.82 15 44C15 43.18 15.68 42.5 16.5 42.5H32.5C33.32 42.5 34 43.18 34 44C34 44.82 33.32 45.5 32.5 45.5Z" fill="#444444"/>
  <path d="M24.5 29.5C23.68 29.5 23 28.82 23 28V20C23 19.18 23.68 18.5 24.5 18.5C25.32 18.5 26 19.18 26 20V28C26 28.84 25.32 29.5 24.5 29.5Z" fill="#444444"/>
  <path d="M30.5 29.5C29.68 29.5 29 28.82 29 28V24C29 23.18 29.68 22.5 30.5 22.5C31.32 22.5 32 23.18 32 24V28C32 28.84 31.34 29.5 30.5 29.5Z" fill="#444444"/>
  <path d="M18.5 29.5C17.68 29.5 17 28.82 17 28V26C17 25.18 17.68 24.5 18.5 24.5C19.32 24.5 20 25.18 20 26V28C20 28.84 19.32 29.5 18.5 29.5Z" fill="#444444"/>
</svg>